<?xml version="1.0" encoding="UTF-8"?>
<svg id="Layer_1" xmlns="http://www.w3.org/2000/svg" version="1.1" viewBox="0 0 600 600">
  <path fill="white" d="M511.25,511.25h-88.9v-139.25c0-33.2-.6-75.95-46.25-75.95s-53.4,36.2-53.4,73.5v141.7h-88.9V224.9h85.35v39.15h1.2c17.4-29.7,49.8-47.5,84.2-46.25,90.1,0,106.75,59.25,106.75,136.4l-.05,157v.05ZM133.5,185.75c-28.42-.14-51.44-23.13-51.6-51.55,0-28.3,23.3-51.6,51.6-51.6s51.55,23.3,51.6,51.6c0,28.3-23.3,51.6-51.6,51.6v-.05ZM177.95,511.25h-89V224.9h89v286.35ZM555.5,0H44.25C20.12-.14.38,19.18,0,43.3v513.4c.38,24.12,20.12,43.44,44.25,43.3h511.3c24.18.2,44.01-19.12,44.45-43.3V43.25c-.44-24.16-20.28-43.45-44.45-43.2l-.05-.05Z"/>
</svg>