<?xml version="1.0" encoding="UTF-8"?>
<svg id="Layer_1" xmlns="http://www.w3.org/2000/svg" version="1.1" viewBox="0 0 175 175">
  <!-- Generator: Adobe Illustrator 30.1.0, SVG Export Plug-In . SVG Version: 2.1.1 Build 136)  -->
  <defs>
    <style>
      .st0 {
        fill: #fca326;
      }

      .st1 {
        fill: #fc6d26;
      }

      .st2 {
        fill: #e24329;
      }
    </style>
  </defs>
  <path class="st2" d="M162.22,71.87l-.21-.56-21.2-55.31c-.42-1.08-1.19-2-2.18-2.63-.99-.63-2.15-.93-3.32-.87-1.17.06-2.29.49-3.21,1.22-.91.74-1.57,1.73-1.87,2.85l-14.31,43.81h-57.91l-14.31-43.81c-.31-1.12-.97-2.12-1.87-2.85-.92-.73-2.04-1.16-3.21-1.22-1.18-.06-2.33.24-3.32.87-.99.63-1.75,1.54-2.18,2.63l-21.2,55.31-.21.55c-6.28,16.39-.93,34.91,13.06,45.49.03.02.05.04.08.06l.19.14,32.29,24.17,15.97,12.09,9.72,7.35c2.34,1.77,5.58,1.77,7.92,0l9.72-7.35,15.97-12.09,32.48-24.32s.06-.04.09-.07c13.98-10.58,19.33-29.1,13.05-45.48h0Z"/>
  <path class="st1" d="M162.22,71.87l-.21-.56c-10.52,2.16-20.2,6.61-28.5,12.82-.13.1-25.2,19.06-46.55,35.2,15.85,11.99,29.65,22.4,29.65,22.4l32.48-24.32s.06-.04.09-.07c13.98-10.58,19.33-29.1,13.05-45.48h0Z"/>
  <path class="st0" d="M57.3,141.73l15.97,12.09,9.72,7.35c2.34,1.77,5.58,1.77,7.92,0l9.72-7.35,15.97-12.09s-13.8-10.42-29.65-22.4c-15.85,11.99-29.65,22.4-29.65,22.4Z"/>
  <path class="st1" d="M40.4,84.13c-8.29-6.2-17.97-10.66-28.5-12.81l-.21.55c-6.28,16.39-.93,34.91,13.06,45.49.03.02.05.04.08.06l.19.14,32.29,24.17s13.8-10.42,29.65-22.4c-21.35-16.14-46.42-35.1-46.55-35.2Z"/>
</svg>